<?xml version="1.0" encoding="iso-8859-1"?>
<!-- Generator: Adobe Illustrator 19.0.0, SVG Export Plug-In . SVG Version: 6.00 Build 0)  -->
<svg version="1.1" id="Capa_1" xmlns="http://www.w3.org/2000/svg" xmlns:xlink="http://www.w3.org/1999/xlink" x="0px" y="0px"
	 viewBox="0 0 508 508" style="enable-background:new 0 0 508 508;" xml:space="preserve">
<g>
	<rect y="32.3" style="fill:#FFD15C;" width="508" height="32.3"/>
	<rect y="334.2" style="fill:#FFD15C;" width="508" height="32.3"/>
</g>
<rect x="28.4" y="64.6" style="fill:#F2F2F2;" width="451.1" height="269.5"/>
<rect x="167.9" style="fill:#F8B64C;" width="172.3" height="32.3"/>
<g>
	<polygon style="fill:#FFD15C;" points="440.2,508 363.4,508 331.5,447.4 176.5,447.4 144.6,508 67.8,508 133.9,382.3 142.2,366.5 
		219,366.5 210.8,382.3 190.8,420.3 317.3,420.3 297.3,382.3 289,366.5 365.8,366.5 374,382.3 	"/>
	<path style="fill:#FFD15C;" d="M224.4,160.4l-76.6,39.1l60.8,60.8C235.4,233.4,241.6,194.2,224.4,160.4z"/>
</g>
<path style="fill:#84DBFF;" d="M161.2,114.4l-13.5,85l76.6-39.1C211.5,135,189.4,118.9,161.2,114.4z"/>
<path style="fill:#FF7058;" d="M147.8,199.4l13.5-85c-28.1-4.5-54.1,4-74.3,24.1c-33.6,33.6-33.6,88.1,0,121.7s88,33.6,121.6,0
	L147.8,199.4z"/>
<g>
	<rect x="261.9" y="216.3" style="fill:#CDD6E0;" width="33.2" height="61.4"/>
	<rect x="314.5" y="184.6" style="fill:#CDD6E0;" width="33.2" height="93.1"/>
	<rect x="367.2" y="152.8" style="fill:#CDD6E0;" width="33.2" height="124.9"/>
	<rect x="419.8" y="121.1" style="fill:#CDD6E0;" width="33.2" height="156.6"/>
</g>
<g>
	<polygon style="fill:#F8B64C;" points="219,366.5 210.8,382.3 133.9,382.3 142.2,366.5 	"/>
	<polygon style="fill:#F8B64C;" points="374,382.3 297.3,382.3 289,366.5 365.8,366.5 	"/>
</g>
<rect x="28.4" y="64.6" style="fill:#CDD6E0;" width="451.1" height="15.8"/>
<g>
</g>
<g>
</g>
<g>
</g>
<g>
</g>
<g>
</g>
<g>
</g>
<g>
</g>
<g>
</g>
<g>
</g>
<g>
</g>
<g>
</g>
<g>
</g>
<g>
</g>
<g>
</g>
<g>
</g>
</svg>
